<?xml version="1.0" encoding="utf-8"?>
<svg viewBox="-37.474334716796875 -45.174522399902344 1920 1080" xmlns="http://www.w3.org/2000/svg">
  <ellipse style="fill: rgb(226, 226, 226);" transform="matrix(-0.6099798679351807, -0.7924169301986694, 0.7924169301986694, -0.6099798679351807, 493.2175322672623, 585.4259581563904)" cx="597.023" cy="52.875" rx="368.612" ry="368.612"/>
  <ellipse style="fill: rgb(233, 233, 233);" transform="matrix(0.360217, 0.932868, -0.932869, 0.360217, 949.272906, 10.852918)" cx="410.522" cy="893.841" rx="467.857" ry="531.729"/>
  <ellipse style="fill: rgb(223, 223, 223);" transform="matrix(0.848436, -0.529299, 0.529299, 0.848436, -83.382219, -215.78115)" cx="322.895" cy="459.446" rx="137.623" ry="137.623"/>
  <ellipse style="fill: rgb(233, 233, 233);" transform="matrix(0.360217, 0.932869, -0.932869, 0.360217, 1266.541995, -324.028037)" cx="319.646" cy="631.502" rx="364.29" ry="375.668"/>
  <ellipse style="fill: rgb(228, 228, 228);" transform="matrix(0.46332, -0.886191, 0.886191, 0.46332, 214.573343, 565.217061)" cx="934.134" cy="968.56" rx="450.023" ry="530.514"/>
  <ellipse style="fill: rgb(223, 223, 223);" transform="matrix(0.848436, -0.529299, 0.529298, 0.848436, -552.97173, 780.707301)" cx="322.895" cy="459.446" rx="137.623" ry="137.623"/>
  <ellipse style="fill: rgb(226, 226, 226);" transform="matrix(-0.60998, -0.792417, 0.792417, -0.60998, 1682.416636, 1718.510821)" cx="943.68" cy="108.748" rx="582.644" ry="758.129"/>
  <ellipse style="fill: rgb(233, 233, 233);" transform="matrix(0.360217, 0.932868, -0.932869, 0.360217, 2231.843714, 290.272339)" cx="359.074" cy="677.934" rx="409.224" ry="403.29"/>
</svg>