<?xml version="1.0" encoding="utf-8"?>
<!-- Generator: Adobe Illustrator 18.1.1, SVG Export Plug-In . SVG Version: 6.00 Build 0)  -->
<svg version="1.1" id="Layer_1" xmlns="http://www.w3.org/2000/svg" xmlns:xlink="http://www.w3.org/1999/xlink" x="0px" y="0px"
	 viewBox="0 0 116.3 101" enable-background="new 0 0 116.3 101" xml:space="preserve">
<g>
	<defs>
		<rect id="SVGID_1_" width="116.3" height="101"/>
	</defs>
	<clipPath id="SVGID_2_">
		<use xlink:href="#SVGID_1_"  overflow="visible"/>
	</clipPath>
	<path clip-path="url(#SVGID_2_)" fill="#3F51B5" d="M82.7,45.2c0,4.8-1.9,8.6-5.6,11.3c-3.7,2.8-8.4,4.1-14.1,4.1
		c1.8,3.2,4.3,7.5,7.6,12.8c3.2,5.3,7.6,10.7,13.2,16.3c5.6,5.5,11.2,8.3,16.9,8.3c2.9,0,6-0.9,9.1-2.6c3.1-1.7,5.4-3.3,6.7-4.6
		c-2.2,3.2-4.8,5.7-7.9,7.5c-3.1,1.8-7.3,2.7-12.6,2.7c-6.5,0-12.4-2.1-17.5-6.2c-5.2-4.1-9.5-9-13.1-14.8
		c-3.6-5.8-7.2-12.6-10.8-20.4c6.3,0,11.1-0.8,14.4-2.3c3.2-1.5,4.9-4.8,4.9-9.6c0-5.4-1.5-9.3-4.6-11.6c-3-2.4-8.9-3.6-17.6-3.6
		v40.3c0,1.7,0.5,3.2,1.5,4.5c1,1.3,2.7,2.5,5.1,3.4H33.4c2.8-0.5,5-1.5,6.6-3c1.6-1.5,2.4-3.3,2.4-5.5V48.9c0-2.8,0.5-5.8,1.6-9.1
		c1.1-3.3,2.4-5.7,4.2-7.3c-10.4,0-17.4,1.2-20.9,3.7c-3.5,2.5-5.3,5.9-5.3,10.2c0,4.2,1.1,7.9,3.4,11.2c2.3,3.3,6.2,6.1,11.7,8.4
		c-6,0-10.6-1.6-13.9-4.9c-3.2-3.3-4.9-7.4-4.9-12.3c0-6.2,2.4-10.8,7.3-13.9c4.8-3.1,13.1-4.7,24.8-4.7l1-1.2v1.2
		c11.5,0,19.6,1.1,24.3,3.2C80.3,35.6,82.7,39.5,82.7,45.2"/>
	<path clip-path="url(#SVGID_2_)" fill="#3F51B5" d="M70.9,93c-6.2,3-13.1,4.6-20.4,4.6c-26,0-47.1-21.1-47.1-47.1
		c0-26,21.1-47.1,47.1-47.1c26,0,47.1,21.1,47.1,47.1c0,13.3-5.5,25.3-14.3,33.8c0.8,0.8,1.5,1.6,2.3,2.4c9.5-9.2,15.4-22,15.4-36.3
		C101,22.6,78.4,0,50.5,0C22.6,0,0,22.6,0,50.5c0,27.9,22.6,50.5,50.5,50.5c8.3,0,16.1-2,23.1-5.6C72.7,94.7,71.8,93.9,70.9,93"/>
</g>
</svg>
